<svg xmlns="http://www.w3.org/2000/svg" xmlns:xlink="http://www.w3.org/1999/xlink" width="32.22" height="28.83" viewBox="0 0 32.22 28.83">
  <defs>
    <radialGradient id="radial-gradient" cx="0.824" cy="0.426" r="1.13" gradientTransform="matrix(-0.396, 0.197, -0.197, -0.396, 0.742, 0.831)" gradientUnits="objectBoundingBox">
      <stop offset="0" stop-color="#c83b3b"/>
      <stop offset="1" stop-color="#fb4949"/>
    </radialGradient>
  </defs>
  <path id="Vector" d="M8.414.7A25.858,25.858,0,0,1,20.405.7a10.187,10.187,0,0,1,7.8,8.767,35.881,35.881,0,0,1,0,13.28,10.176,10.176,0,0,1-7.872,8.779,25.866,25.866,0,0,1-11.857,0c-4.094-.748-7.312-4.4-7.9-9A35.893,35.893,0,0,1,.578,9.7C1.165,5.119,4.352,1.48,8.414.7Z" transform="translate(0 28.83) rotate(-90)" fill="url(#radial-gradient)"/>
</svg>
